# File produced by Open Asset Import Library (http://www.assimp.sf.net)
# (assimp v5.0.0)

mtllib result.mtl

# 80 vertex positions
v  20.292503 -9.5737762 50.841515
v  18.166 -9.5737762 50.841515
v  18.166 -7.4472733 50.841515
v  20.292503 -7.4472728 50.841515
v  20.292503 -9.5737762 57.221024
v  20.292503 -7.4472723 57.221024
v  18.166 -7.4472728 57.221024
v  18.166 -9.5737762 57.221024
v  20.292503 -7.4472728 52.968018
v  20.292503 -9.5737762 52.968018
v  20.292503 -7.4472728 55.094521
v  20.292503 -9.5737762 55.094521
v  18.166 -7.4472733 52.968018
v  18.166 -7.4472728 55.094521
v  18.166 -9.5737762 52.968018
v  18.166 -9.5737762 55.094521
v  -24.499556 5.133348 0.48464394
v  -24.499556 13.63936 0.48464394
v  -15.993544 13.63936 0.48464394
v  -15.993544 5.133348 0.48464394
v  -24.499556 5.133348 26.002682
v  -15.993544 5.133348 26.002682
v  -15.993544 13.63936 26.002682
v  -24.499556 13.63936 26.002682
v  20.292503 9.5410128 50.841515
v  18.166 9.5410128 50.841515
v  18.166 11.667516 50.841515
v  20.292503 11.667516 50.841515
v  20.292503 9.5410128 57.221024
v  20.292503 11.667517 57.221024
v  18.166 11.667517 57.221024
v  18.166 9.5410128 57.221024
v  20.292503 11.667517 52.968018
v  20.292503 9.5410128 52.968018
v  20.292503 11.667517 55.094521
v  20.292503 9.5410128 55.094521
v  18.166 11.667516 52.968018
v  18.166 11.667516 55.094521
v  18.166 9.5410128 52.968018
v  18.166 9.5410128 55.094521
v  24.481056 -7.4588203 35.867725
v  11.722037 -7.4588223 35.867725
v  11.722034 9.5532055 35.867725
v  24.481052 9.5532074 35.867725
v  24.481056 -7.4588194 52.879753
v  24.481052 9.5532084 52.879753
v  11.722034 9.5532064 52.879753
v  11.722037 -7.4588213 52.879753
v  13.796003 -11.89159 26.047115
v  -24.481054 -11.891596 26.047115
v  -24.481058 13.626446 26.047115
v  13.796 13.626451 26.047115
v  13.796003 -11.891589 47.312149
v  13.796 13.626452 47.312149
v  -24.481058 13.626447 47.312149
v  -24.481054 -11.891595 47.312149
v  -24.499556 -11.883183 0.48464394
v  -24.499556 -3.3771706 0.48464394
v  -15.993544 -3.3771706 0.48464394
v  -15.993544 -11.883183 0.48464394
v  -24.499556 -11.883183 26.002682
v  -15.993544 -11.883183 26.002682
v  -15.993544 -3.3771706 26.002682
v  -24.499556 -3.3771706 26.002682
v  5.2737203 -11.883183 0.48464394
v  5.2737203 -3.3771706 0.48464394
v  13.779734 -3.3771706 0.48464394
v  13.779734 -11.883183 0.48464394
v  5.2737203 -11.883183 26.002682
v  13.779734 -11.883183 26.002682
v  13.779734 -3.3771706 26.002682
v  5.2737203 -3.3771706 26.002682
v  5.2737203 5.133348 0.48464394
v  5.2737203 13.63936 0.48464394
v  13.779734 13.63936 0.48464394
v  13.779734 5.133348 0.48464394
v  5.2737203 5.133348 26.002682
v  13.779734 5.133348 26.002682
v  13.779734 13.63936 26.002682
v  5.2737203 13.63936 26.002682

# 114 UV coordinates
vt 0.13953799 0.23133697 0
vt 0.13953799 0.23853804 0
vt 0.13350964 0.23853804 0
vt 0.13350964 0.23133697 0
vt 0.14553304 0.21697693 0
vt 0.15172133 0.21697693 0
vt 0.15172133 0.22419554 0
vt 0.14553304 0.22419554 0
vt 0.13953799 0.23373732 0
vt 0.13350964 0.23373732 0
vt 0.144439 0.19611338 0
vt 0.15309076 0.19611338 0
vt 0.15309076 0.20925952 0
vt 0.144439 0.20925952 0
vt 0.14539355 0.21678473 0
vt 0.15158182 0.21678473 0
vt 0.15158182 0.22400334 0
vt 0.14539355 0.22400334 0
vt 0.1442214 0.19640473 0
vt 0.15287317 0.19640473 0
vt 0.15287317 0.20955089 0
vt 0.1442214 0.20955089 0
vt 0.14558373 0.21684384 0
vt 0.15177201 0.21684384 0
vt 0.15177201 0.22406247 0
vt 0.14558373 0.22406247 0
vt 0.14420913 0.19661292 0
vt 0.15286088 0.19661292 0
vt 0.15286088 0.2097591 0
vt 0.14420913 0.2097591 0
vt 0.14540626 0.21699175 0
vt 0.15159453 0.21699175 0
vt 0.15159453 0.22421035 0
vt 0.14540626 0.22421035 0
vt 0.14448111 0.19600926 0
vt 0.15313289 0.19600926 0
vt 0.15313289 0.20915543 0
vt 0.14448111 0.20915543 0
vt 0.14546965 0.21685869 0
vt 0.15165792 0.21685869 0
vt 0.15165792 0.22407728 0
vt 0.14546965 0.22407728 0
vt 0.096780173 0.023426903 0
vt 0.1435153 0.023426903 0
vt 0.1435153 0.082472242 0
vt 0.096780166 0.082472228 0
vt 0.096939892 0.31582066 0
vt 0.14257884 0.31582066 0
vt 0.14257884 0.25715846 0
vt 0.096939892 0.25715846 0
vt 0.051010683 0.082622044 0
vt 0.097015366 0.082622044 0
vt 0.097015336 0.25704023 0
vt 0.051010653 0.25704023 0
vt 0.097205885 0.082607917 0
vt 0.14373954 0.082607917 0
vt 0.14373946 0.2569434 0
vt 0.097205855 0.2569434 0
vt 0.14356272 0.082498066 0
vt 0.18939254 0.082498066 0
vt 0.18939246 0.25785407 0
vt 0.14356269 0.25785404 0
vt 0.18946598 0.082500428 0
vt 0.23618743 0.082500465 0
vt 0.2361874 0.25693959 0
vt 0.18946595 0.25693959 0
vt 0.14893353 0.37522024 0
vt 0.24114829 0.37522024 0
vt 0.24114829 0.46245462 0
vt 0.14893353 0.46245462 0
vt 0.1494609 0.5793618 0
vt 0.24113066 0.5793618 0
vt 0.24113066 0.66535473 0
vt 0.1494609 0.66535473 0
vt 0.14857154 0.46260494 0
vt 0.24158575 0.46260494 0
vt 0.24158575 0.57792115 0
vt 0.14857154 0.57792115 0
vt 0.24167939 0.46306732 0
vt 0.31043425 0.46306732 0
vt 0.31043425 0.57792395 0
vt 0.24167939 0.57792395 0
vt 0.31066996 0.46256337 0
vt 0.40327415 0.46256337 0
vt 0.40327415 0.57902861 0
vt 0.31066996 0.57902861 0
vt 0.079477631 0.46265423 0
vt 0.14837578 0.46265423 0
vt 0.14837578 0.57785642 0
vt 0.079477631 0.57785642 0
vt 0.71995836 0.78344977 0
vt 0.71995836 0.52050829 0
vt 0.58116287 0.52050829 0
vt 0.58116287 0.78344971 0
vt 0.97556758 0.78345639 0
vt 0.8370164 0.78345639 0
vt 0.83701646 0.52159697 0
vt 0.9755677 0.52159697 0
vt 0.71871692 0.92880851 0
vt 0.58227825 0.92880851 0
vt 0.58227825 0.78353184 0
vt 0.71871692 0.78353184 0
vt 0.58107221 0.78327429 0
vt 0.58107221 0.521752 0
vt 0.46504712 0.521752 0
vt 0.46504712 0.78327429 0
vt 0.71965641 0.52023733 0
vt 0.58113205 0.52023733 0
vt 0.58113205 0.37524545 0
vt 0.71965641 0.37524545 0
vt 0.72099185 0.52169579 0
vt 0.72099185 0.78355736 0
vt 0.83592069 0.78355736 0
vt 0.83592069 0.52169579 0

# 12 vertex normals
vn 5.2451287e-15 -3.2194368e-08 -0.54013187
vn -5.2451287e-15 3.2194368e-08 0.54013187
vn 0.54013181 8.7998643e-08 0
vn -8.7998657e-08 0.54013187 -3.2194368e-08
vn -0.54013181 -8.7998643e-08 0
vn 8.7998657e-08 -0.54013187 3.2194368e-08
vn 0 0 -0.54013181
vn 0 0 0.54013181
vn 0 -0.54013181 0
vn 0.54013181 0 0
vn 0 0.54013181 0
vn -0.54013181 0 0

# Mesh 'Box046' with 28 faces
g Box046
usemtl Skyshock VR
f  1/1/1 2/2/1 3/3/1
f  3/3/1 4/4/1 1/1/1
f  5/5/2 6/6/2 7/7/2
f  7/7/2 8/8/2 5/5/2
f  1/4/3 4/1/3 9/9/3
f  9/9/3 10/10/3 1/4/3
f  10/11/3 9/12/3 11/13/3
f  11/13/3 12/14/3 10/11/3
f  12/15/3 11/16/3 6/17/3
f  6/17/3 5/18/3 12/15/3
f  4/4/4 3/1/4 13/9/4
f  13/9/4 9/10/4 4/4/4
f  9/19/4 13/20/4 14/21/4
f  14/21/4 11/22/4 9/19/4
f  11/23/4 14/24/4 7/25/4
f  7/25/4 6/26/4 11/23/4
f  3/4/5 2/1/5 15/9/5
f  15/9/5 13/10/5 3/4/5
f  13/27/5 15/28/5 16/29/5
f  16/29/5 14/30/5 13/27/5
f  14/31/5 16/32/5 8/33/5
f  8/33/5 7/34/5 14/31/5
f  2/4/6 1/1/6 10/9/6
f  10/9/6 15/10/6 2/4/6
f  15/35/6 10/36/6 12/37/6
f  12/37/6 16/38/6 15/35/6
f  16/39/6 12/40/6 5/41/6
f  5/41/6 8/42/6 16/39/6

# Mesh 'Box044' with 12 faces
g Box044
usemtl Skyshock VR
f  17/43/7 18/44/7 19/45/7
f  19/45/7 20/46/7 17/43/7
f  21/47/8 22/48/8 23/49/8
f  23/49/8 24/50/8 21/47/8
f  17/51/9 20/52/9 22/53/9
f  22/53/9 21/54/9 17/51/9
f  20/55/10 19/56/10 23/57/10
f  23/57/10 22/58/10 20/55/10
f  19/59/11 18/60/11 24/61/11
f  24/61/11 23/62/11 19/59/11
f  18/63/12 17/64/12 21/65/12
f  21/65/12 24/66/12 18/63/12

# Mesh 'Box047' with 28 faces
g Box047
usemtl Skyshock VR
f  25/1/1 26/2/1 27/3/1
f  27/3/1 28/4/1 25/1/1
f  29/5/2 30/6/2 31/7/2
f  31/7/2 32/8/2 29/5/2
f  25/4/3 28/1/3 33/9/3
f  33/9/3 34/10/3 25/4/3
f  34/11/3 33/12/3 35/13/3
f  35/13/3 36/14/3 34/11/3
f  36/15/3 35/16/3 30/17/3
f  30/17/3 29/18/3 36/15/3
f  28/4/4 27/1/4 37/9/4
f  37/9/4 33/10/4 28/4/4
f  33/19/4 37/20/4 38/21/4
f  38/21/4 35/22/4 33/19/4
f  35/23/4 38/24/4 31/25/4
f  31/25/4 30/26/4 35/23/4
f  27/4/5 26/1/5 39/9/5
f  39/9/5 37/10/5 27/4/5
f  37/27/5 39/28/5 40/29/5
f  40/29/5 38/30/5 37/27/5
f  38/31/5 40/32/5 32/33/5
f  32/33/5 31/34/5 38/31/5
f  26/4/6 25/1/6 34/9/6
f  34/9/6 39/10/6 26/4/6
f  39/35/6 34/36/6 36/37/6
f  36/37/6 40/38/6 39/35/6
f  40/39/6 36/40/6 29/41/6
f  29/41/6 32/42/6 40/39/6

# Mesh 'Box040' with 12 faces
g Box040
usemtl Skyshock VR
f  41/67/1 42/68/1 43/69/1
f  43/69/1 44/70/1 41/67/1
f  45/71/2 46/72/2 47/73/2
f  47/73/2 48/74/2 45/71/2
f  41/75/3 44/76/3 46/77/3
f  46/77/3 45/78/3 41/75/3
f  44/79/4 43/80/4 47/81/4
f  47/81/4 46/82/4 44/79/4
f  43/83/5 42/84/5 48/85/5
f  48/85/5 47/86/5 43/83/5
f  42/87/6 41/88/6 45/89/6
f  45/89/6 48/90/6 42/87/6

# Mesh 'Box041' with 12 faces
g Box041
usemtl Skyshock VR
f  49/91/1 50/92/1 51/93/1
f  51/93/1 52/94/1 49/91/1
f  53/95/2 54/96/2 55/97/2
f  55/97/2 56/98/2 53/95/2
f  49/99/3 52/100/3 54/101/3
f  54/101/3 53/102/3 49/99/3
f  52/103/4 51/104/4 55/105/4
f  55/105/4 54/106/4 52/103/4
f  51/107/5 50/108/5 56/109/5
f  56/109/5 55/110/5 51/107/5
f  50/111/6 49/112/6 53/113/6
f  53/113/6 56/114/6 50/111/6

# Mesh 'Box048' with 12 faces
g Box048
usemtl Skyshock VR
f  57/43/7 58/44/7 59/45/7
f  59/45/7 60/46/7 57/43/7
f  61/47/8 62/48/8 63/49/8
f  63/49/8 64/50/8 61/47/8
f  57/51/9 60/52/9 62/53/9
f  62/53/9 61/54/9 57/51/9
f  60/55/10 59/56/10 63/57/10
f  63/57/10 62/58/10 60/55/10
f  59/59/11 58/60/11 64/61/11
f  64/61/11 63/62/11 59/59/11
f  58/63/12 57/64/12 61/65/12
f  61/65/12 64/66/12 58/63/12

# Mesh 'Box049' with 12 faces
g Box049
usemtl Skyshock VR
f  65/43/7 66/44/7 67/45/7
f  67/45/7 68/46/7 65/43/7
f  69/47/8 70/48/8 71/49/8
f  71/49/8 72/50/8 69/47/8
f  65/51/9 68/52/9 70/53/9
f  70/53/9 69/54/9 65/51/9
f  68/55/10 67/56/10 71/57/10
f  71/57/10 70/58/10 68/55/10
f  67/59/11 66/60/11 72/61/11
f  72/61/11 71/62/11 67/59/11
f  66/63/12 65/64/12 69/65/12
f  69/65/12 72/66/12 66/63/12

# Mesh 'Box050' with 12 faces
g Box050
usemtl Skyshock VR
f  73/43/7 74/44/7 75/45/7
f  75/45/7 76/46/7 73/43/7
f  77/47/8 78/48/8 79/49/8
f  79/49/8 80/50/8 77/47/8
f  73/51/9 76/52/9 78/53/9
f  78/53/9 77/54/9 73/51/9
f  76/55/10 75/56/10 79/57/10
f  79/57/10 78/58/10 76/55/10
f  75/59/11 74/60/11 80/61/11
f  80/61/11 79/62/11 75/59/11
f  74/63/12 73/64/12 77/65/12
f  77/65/12 80/66/12 74/63/12

